<svg xmlns="http://www.w3.org/2000/svg" viewBox="0 0 1400 1100" width="1400" height="1100">
  <defs>
    <radialGradient id="g1" cx="62%" cy="44%" r="55%">
      <stop offset="0" stop-color="#a449ff" stop-opacity=".95"/>
      <stop offset=".35" stop-color="#5b14b8" stop-opacity=".55"/>
      <stop offset="1" stop-color="#030006" stop-opacity="1"/>
    </radialGradient>
    <radialGradient id="g2" cx="50%" cy="50%" r="50%">
      <stop offset="0" stop-color="#ffffff" stop-opacity=".16"/>
      <stop offset=".55" stop-color="#8b2cff" stop-opacity=".18"/>
      <stop offset="1" stop-color="#000" stop-opacity="0"/>
    </radialGradient>
    <linearGradient id="bolt" x1="0" y1="0" x2="1" y2="1">
      <stop offset="0" stop-color="#d87bff"/>
      <stop offset=".45" stop-color="#8d2dff"/>
      <stop offset="1" stop-color="#ffffff"/>
    </linearGradient>
    <filter id="glow" x="-50%" y="-50%" width="200%" height="200%">
      <feGaussianBlur stdDeviation="10" result="b"/>
      <feMerge><feMergeNode in="b"/><feMergeNode in="SourceGraphic"/></feMerge>
    </filter>
    <filter id="soft" x="-20%" y="-20%" width="140%" height="140%"><feGaussianBlur stdDeviation="2"/></filter>
  </defs>
  <rect width="1400" height="1100" fill="#030006"/>
  <rect width="1400" height="1100" fill="url(#g1)" opacity=".82"/>
  <g opacity=".65">
    <circle cx="820" cy="520" r="355" fill="none" stroke="#b56cff" stroke-width="3" opacity=".45"/>
    <circle cx="820" cy="520" r="290" fill="none" stroke="#7f35ff" stroke-width="6" opacity=".35"/>
    <circle cx="820" cy="520" r="220" fill="none" stroke="#ffffff" stroke-width="2" opacity=".12"/>
    <circle cx="820" cy="520" r="420" fill="none" stroke="#9d42ff" stroke-width="1" opacity=".28" stroke-dasharray="18 24"/>
  </g>
  <g opacity=".45" filter="url(#soft)">
    <polygon points="1070,120 1108,158 1062,187 1034,145" fill="#9d42ff"/>
    <polygon points="1160,750 1210,815 1125,842" fill="#d15cff" opacity=".5"/>
    <polygon points="205,210 260,245 215,300 170,252" fill="#7f35ff"/>
    <polygon points="310,760 360,805 286,835" fill="#b56cff" opacity=".62"/>
    <polygon points="1180,300 1238,344 1180,392 1136,332" fill="#7f35ff" opacity=".5"/>
    <polygon points="520,120 555,170 492,182" fill="#b56cff" opacity=".4"/>
  </g>
  <g filter="url(#glow)">
    <path d="M805 245 L620 560 H785 L705 850 L1020 455 H835 L925 245 Z" fill="url(#bolt)" opacity=".98"/>
    <path d="M805 245 L620 560 H785 L705 850 L1020 455 H835 L925 245 Z" fill="none" stroke="#f0d6ff" stroke-width="5" opacity=".25"/>
  </g>
  <g opacity=".45">
    <ellipse cx="820" cy="910" rx="360" ry="55" fill="#7a25ff" opacity=".24"/>
    <ellipse cx="820" cy="910" rx="250" ry="32" fill="#d15cff" opacity=".12"/>
  </g>
  <g transform="translate(80 155)">
    <text x="0" y="0" font-family="Arial Black, Impact, sans-serif" font-size="96" letter-spacing="7" fill="#fff">SCHIZORA</text>
    <text x="6" y="62" font-family="Arial, sans-serif" font-size="26" letter-spacing="13" fill="#d8c8ff">SEVEN MINDS. ONE TOKEN.</text>
    <rect x="0" y="100" width="440" height="4" rx="2" fill="#9d42ff" opacity=".75"/>
    <text x="0" y="170" font-family="Arial Black, Impact, sans-serif" font-size="56" letter-spacing="4" fill="#d15cff">OFFICIAL PRESALE</text>
    <text x="0" y="222" font-family="Arial, sans-serif" font-size="28" letter-spacing="3" fill="#f2eaff">BNB CHAIN • MAY 4, 2026 • 16:00 UTC</text>
    <g transform="translate(0 295)">
      <rect width="520" height="96" rx="24" fill="#0c0618" stroke="#9d42ff" stroke-opacity=".55"/>
      <text x="28" y="39" font-family="Arial, sans-serif" font-size="22" fill="#cfc1ec">Token CA</text>
      <text x="28" y="72" font-family="Arial, monospace" font-size="22" fill="#fff">0x194355...2d66c064</text>
    </g>
    <g transform="translate(0 415)">
      <rect width="245" height="72" rx="20" fill="#180a2e" stroke="#9d42ff" stroke-opacity=".45"/>
      <text x="28" y="30" font-family="Arial, sans-serif" font-size="17" fill="#cfc1ec">Softcap</text>
      <text x="28" y="57" font-family="Arial Black, sans-serif" font-size="24" fill="#fff">5 BNB</text>
      <rect x="275" width="245" height="72" rx="20" fill="#180a2e" stroke="#9d42ff" stroke-opacity=".45"/>
      <text x="303" y="30" font-family="Arial, sans-serif" font-size="17" fill="#cfc1ec">Hardcap</text>
      <text x="303" y="57" font-family="Arial Black, sans-serif" font-size="24" fill="#fff">20 BNB</text>
    </g>
    <g transform="translate(0 510)">
      <text x="0" y="0" font-family="Arial Black, sans-serif" font-size="34" letter-spacing="5" fill="#fff">BEHAVIORAL TOKEN</text>
      <text x="0" y="44" font-family="Arial, sans-serif" font-size="24" fill="#d8c8ff">7 rotating modes. One fixed supply.</text>
    </g>
  </g>
  <g opacity=".3">
    <line x1="0" y1="1050" x2="1400" y2="900" stroke="#9d42ff" stroke-width="2"/>
    <line x1="100" y1="1100" x2="1400" y2="830" stroke="#ffffff" stroke-opacity=".16"/>
  </g>
</svg>