<svg xmlns="http://www.w3.org/2000/svg" viewBox="0 0 1200 1200"><defs><radialGradient id="g" cx="55%" cy="42%" r="70%"><stop offset="0" stop-color="#ff1e55"/><stop offset=".45" stop-color="#200008"/><stop offset="1" stop-color="#020006"/></radialGradient></defs><rect width="1200" height="1200" fill="url(#g)"/><circle cx="600" cy="500" r="365" fill="none" stroke="#ff2d66" stroke-width="8" opacity=".75"/><circle cx="600" cy="500" r="295" fill="none" stroke="#fff" stroke-width="2" opacity=".18"/><ellipse cx="600" cy="955" rx="340" ry="72" fill="#18040a" stroke="#ff2d66" stroke-width="5"/><path d="M245 1120 L450 610 L600 805 L750 610 L955 1120 Z" fill="#09050c" stroke="#ff2d66" stroke-width="4"/><path d="M600 210 A145 165 0 0 0 600 530 Z" fill="#170006"/><path d="M600 210 A145 165 0 0 1 600 530 Z" fill="#580716"/><ellipse cx="542" cy="382" rx="38" ry="18" fill="#ff315f"/><ellipse cx="658" cy="382" rx="38" ry="18" fill="#ff315f"/><polygon points="570,260 650,260 605,320 660,320 550,455 590,350 540,350" fill="#ff2d66"/><text x="600" y="90" text-anchor="middle" fill="#ff6688" font-size="38" font-family="Arial" letter-spacing="8">PREDATOR MODE</text></svg>
