<svg xmlns="http://www.w3.org/2000/svg" viewBox="0 0 1200 1200"><defs><radialGradient id="g" cx="55%" cy="40%" r="70%"><stop offset="0" stop-color="#7f45ff"/><stop offset=".45" stop-color="#130027"/><stop offset="1" stop-color="#020006"/></radialGradient><filter id="blur"><feGaussianBlur stdDeviation="18"/></filter></defs><rect width="1200" height="1200" fill="url(#g)"/><circle cx="600" cy="500" r="360" fill="none" stroke="#9d63ff" stroke-width="8" opacity=".75"/><circle cx="600" cy="500" r="285" fill="none" stroke="#fff" stroke-width="2" opacity=".25"/><ellipse cx="600" cy="955" rx="330" ry="70" fill="#140024" stroke="#8d4dff" stroke-width="5"/><path d="M260 1120 L450 610 L600 805 L750 610 L940 1120 Z" fill="#08050f" stroke="#8d4dff" stroke-width="4"/><path d="M600 210 A135 155 0 0 0 600 520 Z" fill="#eee"/><path d="M600 210 A135 155 0 0 1 600 520 Z" fill="#1d1726"/><ellipse cx="542" cy="380" rx="35" ry="18" fill="#a56cff"/><ellipse cx="658" cy="380" rx="35" ry="18" fill="#a56cff"/><polygon points="570,260 650,260 605,320 660,320 550,455 590,350 540,350" fill="#8d32ff"/><text x="600" y="90" text-anchor="middle" fill="#b58cff" font-size="38" font-family="Arial" letter-spacing="8">SILENT MODE</text></svg>
