<svg xmlns="http://www.w3.org/2000/svg" viewBox="0 0 1200 900">
<defs>
<radialGradient id="g" cx="50%" cy="42%" r="70%">
<stop offset="0%" stop-color="#8d7cff" stop-opacity="0.95"/>
<stop offset="42%" stop-color="#0b1026" stop-opacity="0.55"/>
<stop offset="100%" stop-color="#020008" stop-opacity="1"/>
</radialGradient>
<filter id="glow"><feGaussianBlur stdDeviation="6" result="b"/><feMerge><feMergeNode in="b"/><feMergeNode in="SourceGraphic"/></feMerge></filter>
</defs>
<rect width="1200" height="900" fill="url(#g)"/>
<g opacity=".22">
<polygon points="929,190 943,214 934,204" fill="#8d7cff"/>
<polygon points="919,295 957,296 939,333" fill="#8d7cff"/>
<polygon points="299,537 327,539 310,565" fill="#8d7cff"/>
<polygon points="1084,472 1110,490 1109,498" fill="#8d7cff"/>
<polygon points="1150,715 1175,717 1177,740" fill="#8d7cff"/>
<polygon points="959,85 986,114 988,112" fill="#8d7cff"/>
<polygon points="1030,782 1044,798 1060,796" fill="#8d7cff"/>
<polygon points="837,207 873,223 851,243" fill="#8d7cff"/>
<polygon points="226,217 236,247 241,227" fill="#8d7cff"/>
<polygon points="254,575 285,604 276,606" fill="#8d7cff"/>
<polygon points="295,610 332,638 314,647" fill="#8d7cff"/>
<polygon points="206,159 237,172 219,190" fill="#8d7cff"/>
<polygon points="30,357 48,381 47,375" fill="#8d7cff"/>
<polygon points="979,586 1003,601 989,610" fill="#8d7cff"/>
<polygon points="526,78 538,85 536,90" fill="#8d7cff"/>
<polygon points="383,501 405,519 401,523" fill="#8d7cff"/>
<polygon points="601,347 618,364 629,364" fill="#8d7cff"/>
<polygon points="648,560 664,583 666,576" fill="#8d7cff"/>
<polygon points="618,581 648,589 645,611" fill="#8d7cff"/>
<polygon points="521,725 540,739 540,744" fill="#8d7cff"/>
<polygon points="249,165 264,167 254,180" fill="#8d7cff"/>
<polygon points="1030,536 1050,549 1046,556" fill="#8d7cff"/>
<polygon points="195,277 231,304 204,313" fill="#8d7cff"/>
<polygon points="622,841 644,857 643,863" fill="#8d7cff"/>
<polygon points="34,469 67,477 56,502" fill="#8d7cff"/>
<polygon points="996,180 1020,190 1010,204" fill="#8d7cff"/>
<polygon points="52,787 89,810 62,824" fill="#8d7cff"/>
<polygon points="30,557 68,586 54,595" fill="#8d7cff"/>
<polygon points="248,79 286,101 276,117" fill="#8d7cff"/>
<polygon points="1065,546 1085,573 1091,566" fill="#8d7cff"/>
<polygon points="1108,329 1136,339 1138,357" fill="#8d7cff"/>
<polygon points="548,522 565,537 571,539" fill="#8d7cff"/>
<polygon points="392,333 413,356 409,354" fill="#8d7cff"/>
<polygon points="551,483 563,507 573,495" fill="#8d7cff"/>
<polygon points="1151,214 1176,223 1156,239" fill="#8d7cff"/>
<polygon points="335,477 352,495 360,494" fill="#8d7cff"/>
<polygon points="798,808 809,812 812,819" fill="#8d7cff"/>
<polygon points="861,268 899,295 864,306" fill="#8d7cff"/>
<polygon points="544,432 575,453 563,463" fill="#8d7cff"/>
<polygon points="749,828 766,843 778,845" fill="#8d7cff"/>
<polygon points="193,241 217,254 198,265" fill="#8d7cff"/>
<polygon points="122,260 150,286 135,288" fill="#8d7cff"/>
</g>
<circle cx="680" cy="360" r="250" fill="none" stroke="#8d7cff" stroke-width="8" opacity=".75" filter="url(#glow)"/>
<circle cx="680" cy="360" r="190" fill="none" stroke="#ffffff" stroke-width="2" opacity=".2"/>
<g filter="url(#glow)">
<ellipse cx="660" cy="640" rx="310" ry="44" fill="#0b1026" opacity=".25"/>
<path d="M606 170 C522 220 490 330 512 430 C534 540 594 610 672 610 C750 610 810 540 832 430 C854 330 822 220 738 170 C698 146 646 146 606 170Z" fill="#e8e8ee" opacity=".86"/>
<path d="M625 420 C645 446 698 446 718 420" fill="none" stroke="#16101e" stroke-width="8" opacity=".65"/>
<circle cx="615" cy="350" r="14" fill="#8d7cff"/>
<circle cx="725" cy="350" r="14" fill="#8d7cff"/>
<path d="M665 238 L610 370 L668 336 L630 480 L754 294 L690 330 L725 238 Z" fill="#8d7cff" opacity=".9"/>
<path d="M392 690 C452 560 530 512 670 512 C810 512 888 560 948 690 L948 900 L392 900Z" fill="#151019" opacity=".95"/>
<path d="M470 610 C560 700 710 742 870 606" fill="none" stroke="#8d7cff" stroke-width="10" opacity=".55"/>
</g>
</svg>